<?xml version="1.0" standalone="no"?>
<!DOCTYPE svg PUBLIC "-//W3C//DTD SVG 20010904//EN"
 "http://www.w3.org/TR/2001/REC-SVG-20010904/DTD/svg10.dtd">
<svg version="1.0" xmlns="http://www.w3.org/2000/svg"
 width="1000.000000pt" height="1000.000000pt" viewBox="0 0 1000.000000 1000.000000"
 preserveAspectRatio="xMidYMid meet">
<metadata>
Created by potrace 1.11, written by Peter Selinger 2001-2013
</metadata>
<g transform="translate(0.000000,1000.000000) scale(0.100000,-0.100000)"
fill="#000000" stroke="none">
<path d="M3395 9012 c-206 -71 -380 -307 -524 -712 -29 -82 -107 -343 -115
-385 -2 -11 -12 -51 -21 -90 -22 -95 -20 -84 -49 -230 -28 -143 -29 -149 -51
-282 -26 -162 -44 -276 -50 -328 -3 -27 -8 -66 -10 -85 -3 -19 -7 -55 -10 -80
-11 -97 -16 -138 -26 -210 -5 -41 -11 -98 -14 -125 -2 -28 -6 -64 -9 -80 -5
-31 -13 -101 -21 -190 -3 -27 -8 -66 -10 -85 -3 -19 -8 -57 -10 -85 -3 -27 -7
-77 -10 -110 -3 -33 -8 -82 -10 -110 -8 -84 13 -29 45 118 16 72 31 143 34
157 6 33 129 585 160 720 49 210 108 437 190 725 1 6 8 30 15 55 27 98 125
377 167 477 99 238 184 365 271 409 46 23 56 25 87 14 78 -25 142 -121 221
-330 187 -499 406 -797 705 -963 151 -83 272 -112 475 -112 135 0 195 7 305
35 195 50 369 127 607 268 40 24 224 158 289 211 6 5 47 31 90 58 525 328 787
170 786 -472 0 -182 -25 -444 -57 -605 -3 -14 -8 -38 -11 -55 -12 -73 -46
-200 -75 -286 -154 -459 -426 -648 -800 -555 -189 47 -396 161 -585 322 -234
198 -500 315 -721 315 -247 0 -422 -125 -546 -391 -35 -76 -82 -214 -92 -272
-3 -17 -8 -34 -10 -38 -10 -17 -20 -146 -19 -250 3 -181 38 -349 125 -585 66
-180 246 -533 364 -715 12 -19 44 -69 71 -110 51 -80 223 -328 258 -371 12
-15 30 -39 41 -55 85 -119 371 -470 545 -669 112 -128 166 -188 360 -399 85
-92 743 -751 841 -841 246 -228 298 -275 334 -306 22 -19 49 -43 60 -54 57
-55 343 -292 369 -307 16 -9 15 -5 -5 22 -13 18 -36 49 -50 69 -14 20 -77 108
-140 196 -115 159 -335 471 -434 615 -184 265 -309 449 -370 540 -39 58 -72
107 -75 110 -15 15 -70 100 -70 108 0 6 -3 12 -8 14 -4 1 -60 82 -123 178
-106 160 -149 226 -334 510 -198 305 -574 924 -693 1140 -119 217 -155 285
-232 440 -203 408 -282 634 -283 805 -1 200 150 223 456 69 51 -25 97 -50 102
-54 6 -4 26 -17 45 -28 19 -11 96 -57 170 -102 590 -359 1078 -403 1490 -132
266 174 477 482 614 898 14 44 28 91 31 104 2 12 9 37 14 54 11 34 12 38 41
191 97 514 29 1082 -167 1409 -128 213 -308 327 -518 328 -96 0 -145 -8 -250
-43 -155 -52 -375 -185 -510 -309 -45 -42 -196 -136 -305 -191 -139 -70 -262
-115 -381 -139 -344 -71 -632 13 -893 259 -50 48 -103 109 -206 241 -33 42
-135 218 -202 349 -52 102 -76 137 -137 198 -176 179 -375 251 -536 195z m724
-1036 c216 -265 472 -436 751 -500 85 -20 124 -26 188 -28 88 -4 69 -14 -88
-46 -19 -4 -91 -7 -160 -6 -109 0 -135 4 -205 28 -103 35 -203 98 -285 179
-82 80 -96 97 -157 188 -66 98 -203 365 -203 396 0 3 23 -27 51 -68 28 -41 77
-105 108 -143z m2847 121 c89 -68 176 -227 220 -402 4 -16 8 -34 10 -40 2 -10
8 -41 24 -135 15 -87 21 -175 22 -310 0 -200 -8 -281 -58 -551 -8 -44 -42
-155 -43 -139 0 8 6 55 14 104 8 49 17 119 21 155 3 36 8 74 10 85 15 77 21
390 10 506 -27 303 -102 485 -256 623 -59 53 -170 112 -231 122 -55 10 -33 23
54 34 77 9 146 -9 203 -52z m-2564 -3002 c78 -184 318 -662 370 -737 10 -14
18 -28 18 -30 0 -4 60 -109 160 -283 44 -76 259 -429 306 -501 54 -85 83 -136
67 -119 -180 190 -602 801 -754 1093 -28 53 -55 102 -59 107 -5 6 -8 12 -8 15
-1 3 -15 37 -32 75 -79 174 -150 382 -166 485 -2 14 -6 39 -9 55 -3 17 -7 59
-10 95 l-5 65 35 -100 c20 -55 59 -154 87 -220z"/>
</g>
</svg>
