<?xml version="1.0" encoding="utf-8"?>
<!-- Generator: Adobe Illustrator 21.1.0, SVG Export Plug-In . SVG Version: 6.00 Build 0)  -->
<svg version="1.1" id="bar" xmlns="http://www.w3.org/2000/svg" xmlns:xlink="http://www.w3.org/1999/xlink" x="0px" y="0px"
	 viewBox="0 0 45 45" style="enable-background:new 0 0 45 45;" xml:space="preserve">
<style type="text/css">
	.st0, .st1{fill:#FFFFFF;}
</style>
<g class="back">
	<path class="st0"
		d="M8.2,20h28.7c1.2,0,2.2,1,2.2,2.2v4.7c0,1.2-1,2.2-2.2,2.2H8.2C7,29,6,28,6,26.8v-4.7C6,21,7,20,8.2,20z"/>
</g>
<g class="front">
	<path class="st1"
		d="M8.2,20h28.7c1.2,0,2.2,1,2.2,2.2v4.7c0,1.2-1,2.2-2.2,2.2H8.2C7,29,6,28,6,26.8v-4.7C6,21,7,20,8.2,20z"/>
</g>
</svg>
