<svg xmlns="http://www.w3.org/2000/svg" xmlns:xlink="http://www.w3.org/1999/xlink" width="100%" height="100%" viewBox="0 0 56 132">
  <metadata><?xpacket begin="﻿" id="W5M0MpCehiHzreSzNTczkc9d"?>
<x:xmpmeta xmlns:x="adobe:ns:meta/" x:xmptk="Adobe XMP Core 5.6-c138 79.159824, 2016/09/14-01:09:01">
   <rdf:RDF xmlns:rdf="http://www.w3.org/1999/02/22-rdf-syntax-ns#">
      <rdf:Description rdf:about=""/>
   </rdf:RDF>
</x:xmpmeta>

<?xpacket end="w"?></metadata>
<defs>
    <style>
      .cls-1 {
        fill: white;
        fill-rule: evenodd;
      }
    </style>
  </defs>
  <g id="LeftArrow">
    <g id="Lg">
      <path id="Bottom" class="cls-1" d="M1814.76,2763l1.24-.64-53.76-65.84-1.24.64Z" transform="translate(-1761 -2631)"/>
      <path id="Top" class="cls-1" d="M1815.28,2631.62l-1.25-.62-52.31,66.57,1.25,0.63Z" transform="translate(-1761 -2631)"/>
    </g>
    <g id="Medium">
      <path id="Bottom-2" data-name="Bottom" class="cls-1 Bottom" d="M1816.01,2763l0.99-.64-43.01-65.84-0.99.64Z" transform="translate(-1761 -2631)"/>
      <path id="Top-2" data-name="Top" class="cls-1 Top" d="M1816.43,2631.62l-1.01-.62-41.85,66.57,1.01,0.63Z" transform="translate(-1761 -2631)"/>
    </g>
    <g id="Small">
      <path id="Bottom-3" data-name="Bottom" class="cls-1 Bottom" d="M1815.3,2763l0.7-.64-30.3-65.84-0.7.64Z" transform="translate(-1761 -2631)"/>
      <path id="Top-3" data-name="Top" class="cls-1 Top" d="M1815.6,2631.62l-0.71-.62-29.49,66.57,0.71,0.63Z" transform="translate(-1761 -2631)"/>
    </g>
    <g id="XSmall">
      <path id="Bottom-4" data-name="Bottom" class="cls-1 Bottom" d="M1815.5,2763l0.5-.64-21.5-65.84-0.5.64Z" transform="translate(-1761 -2631)"/>
      <path id="Top-4" data-name="Top" class="cls-1 Top" d="M1815.71,2631.62l-0.5-.62-20.92,66.57,0.5,0.63Z" transform="translate(-1761 -2631)"/>
    </g>
    <g id="XXSmall">
      <path id="Bottom-5" data-name="Bottom" class="cls-1 Bottom" d="M1814.71,2763l0.29-.64-12.71-65.84-0.29.64Z" transform="translate(-1761 -2631)"/>
      <path id="Top-5" data-name="Top" class="cls-1 Top" d="M1814.83,2631.62l-0.3-.62-12.36,66.57,0.3,0.63Z" transform="translate(-1761 -2631)"/>
    </g>
  </g>
</svg>
