<?xml version="1.0" encoding="utf-8"?>
<!-- Generator: Adobe Illustrator 21.1.0, SVG Export Plug-In . SVG Version: 6.00 Build 0)  -->
<svg version="1.1" xmlns="http://www.w3.org/2000/svg" xmlns:xlink="http://www.w3.org/1999/xlink" x="0px" y="0px"
	 viewBox="0 0 100 100" style="enable-background:new 0 0 100 100;" xml:space="preserve">
	<line class="st0" x1="9.5" y1="83" x2="9.5" y2="29.7"/>
	<path class="st1" d="M13.9,23c0.9-0.8,6.1-5.2,13.3-4.4c8.5,0.8,12.8,7.9,13.3,8.9c5.1,8.7,1.3,20.1-4.4,26.7
		c-8.2,9.4-20.4,9-22.2,8.9"/>
	<line class="st1" x1="40" y1="83" x2="31.6" y2="62.5"/>
	<path class="st2" d="M84.7,20.8c-3.2-0.7-8-1.4-13.3,0c-12.6,3.3-22.2,16.3-22.2,30.1c0,13.7,9.5,26.2,22.2,30.1
		c7.5,2.3,14.3,1,17.8,0"/>
	<line class="st3" x1="84.7" y1="76.5" x2="84.7" y2="58.8"/>
	<line class="st3" x1="80.2" y1="54.3" x2="91" y2="56"/>
</svg>
